<svg width="74" height="80" viewBox="0 0 74 80" fill="none" xmlns="http://www.w3.org/2000/svg">
<g clip-path="url(#clip0_1617_32483)">
<path d="M37.9281 73.6917C38.0671 70.0899 38.6127 60.3716 40.4616 50.367C41.6916 43.7154 44.4959 39.2648 45.4268 34.2242C46.2712 29.6591 46.1523 26.1375 46.1523 26.1375L44.9766 25.9575L46.4343 18.0578L49.5025 18.5273C49.7532 18.563 50.008 18.5012 50.2144 18.3545C50.4208 18.2077 50.5629 17.9873 50.6114 17.7388L50.7288 17.1076C50.7288 17.1076 61.3854 17.3301 64.1143 25.2518C64.4319 26.1729 64.5273 27.1237 64.8615 27.1771C65.3159 27.2469 65.6377 25.5152 65.8215 24.5049C68.4103 10.192 52.4613 7.76917 52.4529 7.76852L52.5563 7.21078C52.5799 7.08973 52.5786 6.96516 52.5526 6.84463C52.5265 6.7241 52.4762 6.61013 52.4048 6.50962C52.3333 6.40912 52.2422 6.3242 52.1369 6.26C52.0316 6.19581 51.9143 6.15368 51.7923 6.13619L37.6504 3.97216C37.3994 3.93477 37.1435 3.99606 36.9366 4.14317C36.7297 4.29028 36.5879 4.51178 36.5407 4.76123C36.5407 4.76123 35.5072 6.98963 33.3414 4.60596C32.4689 3.64681 31.7658 3.15852 31.1884 3.00688C31.12 2.99069 28.1874 2.52405 28.1874 2.52405C27.9366 2.48717 27.6812 2.54859 27.4746 2.69551C27.268 2.84242 27.1261 3.06347 27.0785 3.3125L25.1316 13.8433C25.1085 13.9643 25.1101 14.0887 25.1364 14.2091C25.1626 14.3294 25.213 14.4432 25.2844 14.5436C25.3557 14.644 25.4467 14.7289 25.5518 14.7932C25.6568 14.8575 25.7738 14.8999 25.8957 14.9179C25.8957 14.9179 28.835 15.3493 28.9063 15.3528C29.506 15.3815 30.3463 15.1306 31.5144 14.4813C34.4205 12.8753 34.5919 15.2894 34.5919 15.2894C34.5688 15.4104 34.5704 15.5348 34.5967 15.6552C34.6229 15.7755 34.6733 15.8893 34.7446 15.9897C34.816 16.0901 34.907 16.175 35.012 16.2393C35.1171 16.3036 35.2341 16.346 35.356 16.364L38.4241 16.8334L36.9649 24.7328L35.7883 24.5534C35.7883 24.5534 34.4075 27.845 33.5649 32.4127C32.6334 37.4525 33.6823 42.4904 32.4523 49.142C30.6031 59.1442 27.6267 68.4914 26.4647 71.9382C26.2534 72.5713 26.1822 72.9064 26.3252 73.1076C26.477 73.3212 26.8679 73.3872 27.5862 73.4969L31.9476 74.1646L36.3075 74.8321C37.7074 75.0445 37.8724 75.0515 37.9281 73.6917Z" fill="black"/>
</g>
<defs>
<clipPath id="clip0_1617_32483">
<rect width="73.0588" height="79.1471" fill="white"/>
</clipPath>
</defs>
</svg>
