<svg width="638" height="570" viewBox="0 0 638 570" fill="none" xmlns="http://www.w3.org/2000/svg">
<path d="M0.812012 0.0109863H27.629L239.413 536.004L451.198 0.0109863H477.671L252.822 569.353H226.005L0.812012 0.0109863ZM256.603 445.583L242.507 477.213L54.102 0.0109863H80.575L256.603 445.583ZM283.076 377.853L270.012 411.89L107.392 0.0109863H134.208L283.076 377.853ZM309.206 309.092L296.141 343.817L160.681 0.0109863H187.155L309.206 309.092ZM610.72 0.0109863H637.54L412.348 569.353H385.874L610.72 0.0109863ZM557.778 0.0109863H584.25L359.058 569.353H332.585L557.778 0.0109863ZM504.144 0.0109863H530.961L305.768 569.353H279.295L504.144 0.0109863Z" fill="white"/>
</svg>
