<svg width="427" height="221" viewBox="0 0 427 221" fill="none" xmlns="http://www.w3.org/2000/svg">
<path d="M153.502 53.2115L155 48.0002L206.5 100L204 105.5L153.502 53.2115Z" fill="black"/>
<path d="M4 6H14.095L93.821 207.774L155 48L163.5 57.1L98.869 220.328H88.773L4 6ZM100.292 173.735L94.986 185.642L24.061 6H34.026L100.292 173.735ZM110.258 148.238L105.34 161.051L44.122 6H54.217L110.258 148.238ZM120.094 122.353L115.176 135.425L64.183 6H74.148L120.094 122.353ZM198.6 95L205.5 102L158.922 220.328H148.956L198.6 95ZM184.5 79.7L191.5 87.2L138.861 220.328H128.895L184.5 79.7ZM170.478 64.6L177.574 72.2L118.8 220.328H108.834L170.478 64.6Z" fill="black"/>
<path d="M209.933 183.123L206.935 187H192.42V171.921H209.888L206.868 175.843H197.108V177.646H209.054L206.372 181.072H197.108V183.123H209.933ZM221.938 177.534C222.269 178.12 222.555 178.638 222.795 179.089C223.05 179.525 223.268 179.915 223.449 180.261C223.644 180.606 223.809 180.922 223.944 181.207C224.095 181.493 224.237 181.771 224.373 182.041C224.493 181.771 224.621 181.5 224.756 181.23C224.906 180.944 225.071 180.629 225.252 180.283C225.447 179.923 225.665 179.525 225.905 179.089C226.161 178.653 226.454 178.142 226.784 177.556L229.196 173.274C229.467 172.793 229.805 172.41 230.21 172.124C230.631 171.824 231.149 171.673 231.766 171.673C232.352 171.673 232.877 171.846 233.343 172.192C233.824 172.522 234.17 173.041 234.38 173.747L238.189 187H233.546L232.126 181.748C231.886 180.892 231.683 180.141 231.518 179.494C231.352 178.848 231.21 178.217 231.089 177.601C230.834 178.127 230.548 178.713 230.233 179.359C229.917 179.99 229.504 180.794 228.993 181.771L226.965 185.557C226.769 185.933 226.567 186.234 226.356 186.459C226.161 186.669 225.958 186.835 225.748 186.955C225.537 187.075 225.312 187.15 225.071 187.18C224.831 187.225 224.568 187.248 224.283 187.248C223.997 187.248 223.734 187.225 223.494 187.18C223.253 187.15 223.028 187.075 222.818 186.955C222.607 186.835 222.397 186.669 222.186 186.459C221.991 186.234 221.796 185.933 221.6 185.557L219.572 181.748C219.301 181.237 219.061 180.779 218.851 180.373C218.64 179.968 218.445 179.607 218.265 179.292C218.099 178.961 217.949 178.661 217.814 178.39C217.694 178.12 217.573 177.857 217.453 177.601C217.333 178.202 217.19 178.833 217.025 179.494C216.86 180.141 216.664 180.892 216.439 181.748L215.019 187H210.444L214.343 173.747C214.553 173.041 214.899 172.522 215.38 172.192C215.86 171.846 216.394 171.673 216.98 171.673C217.581 171.673 218.084 171.816 218.49 172.102C218.911 172.387 219.256 172.778 219.527 173.274L221.938 177.534ZM211.601 210.123L208.603 214H201.03C199.723 214 198.513 213.805 197.401 213.414C196.289 213.023 195.328 212.49 194.516 211.814C193.72 211.123 193.089 210.311 192.623 209.379C192.172 208.433 191.947 207.411 191.947 206.314C191.947 205.217 192.172 204.218 192.623 203.316C193.089 202.4 193.72 201.619 194.516 200.972C195.328 200.311 196.289 199.808 197.401 199.462C198.513 199.102 199.723 198.921 201.03 198.921H211.601L208.603 202.843H201.03C200.399 202.843 199.813 202.933 199.272 203.114C198.731 203.294 198.265 203.549 197.874 203.88C197.484 204.195 197.176 204.579 196.95 205.029C196.725 205.48 196.612 205.976 196.612 206.517C196.612 207.058 196.717 207.554 196.928 208.005C197.153 208.44 197.461 208.816 197.852 209.132C198.258 209.447 198.731 209.695 199.272 209.875C199.813 210.041 200.399 210.123 201.03 210.123H211.601ZM223.769 198.673C227.435 198.673 230.185 199.297 232.018 200.544C233.866 201.791 234.79 203.76 234.79 206.449C234.79 209.154 233.874 211.13 232.04 212.377C230.207 213.624 227.45 214.248 223.769 214.248C220.072 214.248 217.307 213.624 215.474 212.377C213.656 211.13 212.747 209.154 212.747 206.449C212.747 203.76 213.664 201.791 215.497 200.544C217.33 199.297 220.087 198.673 223.769 198.673ZM223.769 210.326C224.941 210.326 225.932 210.281 226.744 210.191C227.555 210.086 228.209 209.89 228.705 209.605C229.216 209.319 229.584 208.929 229.809 208.433C230.034 207.922 230.147 207.261 230.147 206.449C230.147 205.638 230.034 204.984 229.809 204.488C229.584 203.978 229.216 203.587 228.705 203.316C228.209 203.031 227.555 202.843 226.744 202.753C225.932 202.648 224.941 202.595 223.769 202.595C222.597 202.595 221.605 202.648 220.793 202.753C219.982 202.843 219.321 203.031 218.81 203.316C218.314 203.587 217.953 203.978 217.728 204.488C217.503 204.984 217.39 205.638 217.39 206.449C217.39 207.261 217.503 207.922 217.728 208.433C217.953 208.929 218.314 209.319 218.81 209.605C219.321 209.89 219.982 210.086 220.793 210.191C221.605 210.281 222.597 210.326 223.769 210.326ZM252.428 214.248C252.127 214.248 251.827 214.195 251.526 214.09C251.241 214 250.917 213.782 250.557 213.437L241.316 205.142V214H237.078V201.491C237.078 200.995 237.146 200.567 237.281 200.206C237.432 199.845 237.619 199.552 237.845 199.327C238.085 199.102 238.356 198.936 238.656 198.831C238.972 198.726 239.295 198.673 239.625 198.673C239.911 198.673 240.196 198.726 240.482 198.831C240.782 198.921 241.12 199.139 241.496 199.485L250.737 207.779V198.921H254.997V211.408C254.997 211.904 254.922 212.332 254.772 212.693C254.636 213.053 254.449 213.354 254.208 213.594C253.983 213.82 253.712 213.985 253.397 214.09C253.081 214.195 252.758 214.248 252.428 214.248ZM271.722 204.939C273.571 204.939 274.976 205.285 275.937 205.976C276.899 206.652 277.38 207.682 277.38 209.064C277.38 209.83 277.26 210.521 277.019 211.138C276.779 211.754 276.396 212.272 275.87 212.693C275.344 213.113 274.668 213.437 273.841 213.662C273.03 213.887 272.053 214 270.911 214H256.869L259.867 210.123H271.272C271.828 210.123 272.233 210.041 272.489 209.875C272.744 209.695 272.872 209.41 272.872 209.019C272.872 208.628 272.744 208.35 272.489 208.185C272.233 208.02 271.828 207.937 271.272 207.937H263.067C262.091 207.937 261.249 207.832 260.543 207.621C259.837 207.411 259.251 207.118 258.785 206.742C258.319 206.367 257.974 205.916 257.748 205.39C257.523 204.849 257.41 204.256 257.41 203.609C257.41 202.903 257.53 202.265 257.771 201.694C258.026 201.108 258.409 200.612 258.92 200.206C259.446 199.8 260.115 199.485 260.926 199.259C261.753 199.034 262.737 198.921 263.879 198.921H276.974L273.976 202.843H263.518C262.977 202.843 262.572 202.918 262.301 203.069C262.046 203.219 261.918 203.489 261.918 203.88C261.918 204.271 262.046 204.549 262.301 204.714C262.572 204.864 262.977 204.939 263.518 204.939H271.722ZM296.838 198.921L293.818 202.843H288.431V214H283.766V202.843H276.688L279.709 198.921H296.838ZM318.119 214H311.876L308.517 210.011H301.35V214H296.684V206.292H309.802C310.523 206.292 311.132 206.141 311.628 205.841C312.124 205.54 312.372 205.127 312.372 204.601C312.372 204.015 312.146 203.579 311.695 203.294C311.245 202.993 310.614 202.843 309.802 202.843H296.684L299.727 198.921H309.419C310.276 198.921 311.162 199.004 312.079 199.169C312.995 199.32 313.829 199.597 314.58 200.003C315.332 200.409 315.948 200.957 316.429 201.649C316.925 202.34 317.172 203.226 317.172 204.308C317.172 204.894 317.082 205.45 316.902 205.976C316.722 206.502 316.459 206.975 316.113 207.396C315.783 207.817 315.369 208.177 314.873 208.478C314.393 208.763 313.844 208.966 313.228 209.086C313.484 209.282 313.769 209.53 314.085 209.83C314.4 210.131 314.821 210.544 315.347 211.07L318.119 214ZM339.383 207.419C339.383 211.971 336.25 214.248 329.985 214.248C328.166 214.248 326.604 214.105 325.296 213.82C323.989 213.534 322.907 213.106 322.051 212.535C321.209 211.964 320.586 211.258 320.18 210.416C319.789 209.56 319.594 208.561 319.594 207.419V198.921H324.237V207.419C324.237 207.975 324.312 208.44 324.462 208.816C324.613 209.192 324.891 209.5 325.296 209.74C325.717 209.965 326.303 210.131 327.054 210.236C327.806 210.326 328.782 210.371 329.985 210.371C330.886 210.371 331.637 210.319 332.238 210.213C332.84 210.108 333.32 209.935 333.681 209.695C334.042 209.455 334.297 209.147 334.447 208.771C334.613 208.395 334.695 207.944 334.695 207.419V198.921H339.383V207.419ZM361.209 210.123L358.211 214H350.638C349.331 214 348.121 213.805 347.009 213.414C345.897 213.023 344.935 212.49 344.124 211.814C343.328 211.123 342.697 210.311 342.231 209.379C341.78 208.433 341.555 207.411 341.555 206.314C341.555 205.217 341.78 204.218 342.231 203.316C342.697 202.4 343.328 201.619 344.124 200.972C344.935 200.311 345.897 199.808 347.009 199.462C348.121 199.102 349.331 198.921 350.638 198.921H361.209L358.211 202.843H350.638C350.007 202.843 349.421 202.933 348.88 203.114C348.339 203.294 347.873 203.549 347.482 203.88C347.092 204.195 346.784 204.579 346.558 205.029C346.333 205.48 346.22 205.976 346.22 206.517C346.22 207.058 346.325 207.554 346.536 208.005C346.761 208.44 347.069 208.816 347.46 209.132C347.865 209.447 348.339 209.695 348.88 209.875C349.421 210.041 350.007 210.123 350.638 210.123H361.209ZM354.109 214.699L352.261 219.747H350.638V214.699H354.109ZM368.436 214L371.254 210.123H375.04C375.491 210.123 375.957 210.123 376.438 210.123C376.934 210.123 377.362 210.138 377.722 210.168C377.512 209.898 377.264 209.56 376.979 209.154C376.708 208.733 376.445 208.343 376.19 207.982L373.485 203.993L366.408 214H360.886L370.555 200.364C370.871 199.928 371.269 199.537 371.75 199.192C372.23 198.846 372.839 198.673 373.575 198.673C374.281 198.673 374.867 198.839 375.333 199.169C375.814 199.485 376.22 199.883 376.55 200.364L385.972 214H368.436ZM375.063 197.501C374.777 197.501 374.499 197.456 374.229 197.366C373.958 197.261 373.688 197.156 373.417 197.051C373.162 196.93 372.899 196.825 372.629 196.735C372.358 196.63 372.08 196.577 371.795 196.577C371.449 196.577 371.118 196.66 370.803 196.825C370.502 196.975 370.254 197.163 370.059 197.389V195.518C370.27 195.277 370.525 195.105 370.825 195C371.126 194.894 371.449 194.842 371.795 194.842C372.08 194.842 372.358 194.894 372.629 195C372.899 195.09 373.162 195.195 373.417 195.315C373.688 195.435 373.951 195.548 374.206 195.653C374.477 195.743 374.762 195.788 375.063 195.788C375.408 195.788 375.731 195.713 376.032 195.563C376.333 195.398 376.58 195.202 376.776 194.977V196.825C376.565 197.081 376.31 197.261 376.009 197.366C375.724 197.456 375.408 197.501 375.063 197.501ZM395.872 198.673C399.538 198.673 402.288 199.297 404.121 200.544C405.969 201.791 406.893 203.76 406.893 206.449C406.893 209.154 405.977 211.13 404.143 212.377C402.31 213.624 399.553 214.248 395.872 214.248C392.175 214.248 389.41 213.624 387.577 212.377C385.759 211.13 384.85 209.154 384.85 206.449C384.85 203.76 385.767 201.791 387.6 200.544C389.433 199.297 392.19 198.673 395.872 198.673ZM395.872 210.326C397.044 210.326 398.035 210.281 398.847 210.191C399.658 210.086 400.312 209.89 400.808 209.605C401.319 209.319 401.687 208.929 401.912 208.433C402.137 207.922 402.25 207.261 402.25 206.449C402.25 205.638 402.137 204.984 401.912 204.488C401.687 203.978 401.319 203.587 400.808 203.316C400.312 203.031 399.658 202.843 398.847 202.753C398.035 202.648 397.044 202.595 395.872 202.595C394.7 202.595 393.708 202.648 392.896 202.753C392.085 202.843 391.424 203.031 390.913 203.316C390.417 203.587 390.056 203.978 389.831 204.488C389.606 204.984 389.493 205.638 389.493 206.449C389.493 207.261 389.606 207.922 389.831 208.433C390.056 208.929 390.417 209.319 390.913 209.605C391.424 209.89 392.085 210.086 392.896 210.191C393.708 210.281 394.7 210.326 395.872 210.326ZM407.939 212.084C407.939 211.378 408.18 210.837 408.661 210.461C409.156 210.071 409.757 209.875 410.464 209.875C411.185 209.875 411.786 210.071 412.267 210.461C412.763 210.837 413.011 211.378 413.011 212.084C413.011 212.775 412.763 213.309 412.267 213.684C411.786 214.06 411.185 214.248 410.464 214.248C409.757 214.248 409.156 214.06 408.661 213.684C408.18 213.309 407.939 212.775 407.939 212.084ZM414.895 212.084C414.895 211.378 415.135 210.837 415.616 210.461C416.112 210.071 416.713 209.875 417.419 209.875C418.14 209.875 418.741 210.071 419.222 210.461C419.718 210.837 419.966 211.378 419.966 212.084C419.966 212.775 419.718 213.309 419.222 213.684C418.741 214.06 418.14 214.248 417.419 214.248C416.713 214.248 416.112 214.06 415.616 213.684C415.135 213.309 414.895 212.775 414.895 212.084ZM421.85 212.084C421.85 211.378 422.091 210.837 422.571 210.461C423.067 210.071 423.668 209.875 424.375 209.875C425.096 209.875 425.697 210.071 426.178 210.461C426.674 210.837 426.921 211.378 426.921 212.084C426.921 212.775 426.674 213.309 426.178 213.684C425.697 214.06 425.096 214.248 424.375 214.248C423.668 214.248 423.067 214.06 422.571 213.684C422.091 213.309 421.85 212.775 421.85 212.084Z" fill="black"/>
</svg>
