<svg width="272" height="22" viewBox="0 0 272 22" fill="none" xmlns="http://www.w3.org/2000/svg">
<path d="M0.0549734 18V5.60406H8.89917V8.06567H2.86824V10.5624H8.02002V13.024H2.86824V15.5384H8.89917V18H0.0549734ZM21.2249 14.5889C21.2249 16.7164 19.7304 18.1758 15.9149 18.1758C11.4488 18.1758 9.77845 16.3472 9.77845 13.2175H12.5917C12.5917 15.1164 13.5412 15.7142 16.0028 15.7142C17.8138 15.7142 18.4116 15.2922 18.4116 14.6241C18.4116 13.7274 16.8995 13.323 15.0885 12.7075C12.4686 11.8284 10.3411 11.1251 10.3411 8.69865C10.3411 6.5887 12.0115 5.42823 15.2116 5.42823C19.0095 5.42823 20.715 7.36235 20.715 9.82396H17.9017C17.9017 8.31183 16.7413 7.88984 15.2116 7.88984C13.9456 7.88984 13.1544 8.17116 13.1544 8.80415C13.1544 9.3668 13.4533 9.5778 15.4401 10.2459C17.7259 11.0196 21.2249 12.0042 21.2249 14.5889ZM31.9615 5.60406V8.06567H27.9174V18H25.1041V8.06567H21.0425V5.60406H31.9615ZM40.8329 18L39.7075 14.0263H34.6788L33.5711 18H30.7227L34.292 5.60406H40.0944L43.6813 18H40.8329ZM35.3646 11.5647H39.0218L37.5449 6.30738H36.8415L35.3646 11.5647ZM44.9222 18V5.60406H50.4609L52.2719 17.2967H52.9752L54.7863 5.60406H60.3249V18H57.5116V8.06567L58.0391 6.30738H57.3358L55.3489 18H49.8982L47.9113 6.30738H47.208L47.7355 8.06567V18H44.9222ZM61.7283 11.7932C61.7283 8.18875 64.1196 5.42823 68.0582 5.42823C71.9792 5.42823 74.3704 8.18875 74.3704 11.7932C74.3704 15.4153 71.9792 18.1758 68.0582 18.1758C64.1196 18.1758 61.7283 15.4153 61.7283 11.7932ZM64.5416 11.7932C64.5416 14.1845 65.7197 15.7142 68.0582 15.7142C70.3967 15.7142 71.5572 14.1845 71.5572 11.7932C71.5572 9.41955 70.3967 7.88984 68.0582 7.88984C65.7197 7.88984 64.5416 9.41955 64.5416 11.7932ZM86.6971 14.5889C86.6971 16.7164 85.2026 18.1758 81.3871 18.1758C76.9211 18.1758 75.2507 16.3472 75.2507 13.2175H78.0639C78.0639 15.1164 79.0134 15.7142 81.475 15.7142C83.2861 15.7142 83.8839 15.2922 83.8839 14.6241C83.8839 13.7274 82.3717 13.323 80.5607 12.7075C77.9409 11.8284 75.8133 11.1251 75.8133 8.69865C75.8133 6.5887 77.4837 5.42823 80.6838 5.42823C84.4817 5.42823 86.1872 7.36235 86.1872 9.82396H83.374C83.374 8.31183 82.2135 7.88984 80.6838 7.88984C79.4178 7.88984 78.6266 8.17116 78.6266 8.80415C78.6266 9.3668 78.9255 9.5778 80.9124 10.2459C83.1981 11.0196 86.6971 12.0042 86.6971 14.5889ZM93.2065 18V5.60406H102.051V8.06567H96.0198V10.5624H101.172V13.024H96.0198V15.5384H102.051V18H93.2065ZM103.629 18V5.60406H109.168L110.979 17.2967H111.682L113.493 5.60406H119.032V18H116.219V8.06567L116.746 6.30738H116.043L114.056 18H108.605L106.618 6.30738H105.915L106.442 8.06567V18H103.629ZM125.896 11.7932C125.896 8.18875 128.322 5.42823 132.261 5.42823C135.724 5.42823 138.01 7.32719 138.379 10.3866H135.566C135.285 8.7514 133.984 7.88984 132.296 7.88984C130.133 7.88984 128.709 9.24372 128.709 11.7932C128.709 14.3603 130.133 15.7142 132.296 15.7142C133.984 15.7142 135.285 14.8351 135.566 13.1999H138.379C138.01 16.2769 135.724 18.1758 132.261 18.1758C128.322 18.1758 125.896 15.4153 125.896 11.7932ZM139.598 11.7932C139.598 8.18875 141.989 5.42823 145.928 5.42823C149.849 5.42823 152.24 8.18875 152.24 11.7932C152.24 15.4153 149.849 18.1758 145.928 18.1758C141.989 18.1758 139.598 15.4153 139.598 11.7932ZM142.411 11.7932C142.411 14.1845 143.589 15.7142 145.928 15.7142C148.266 15.7142 149.427 14.1845 149.427 11.7932C149.427 9.41955 148.266 7.88984 145.928 7.88984C143.589 7.88984 142.411 9.41955 142.411 11.7932ZM153.837 18V5.60406H159.375L163.12 17.2967H163.824L163.296 15.5384V5.60406H166.109V18H160.571L156.826 6.30738H156.122L156.65 8.06567V18H153.837ZM178.801 14.5889C178.801 16.7164 177.307 18.1758 173.491 18.1758C169.025 18.1758 167.355 16.3472 167.355 13.2175H170.168C170.168 15.1164 171.118 15.7142 173.579 15.7142C175.39 15.7142 175.988 15.2922 175.988 14.6241C175.988 13.7274 174.476 13.323 172.665 12.7075C170.045 11.8284 167.917 11.1251 167.917 8.69865C167.917 6.5887 169.588 5.42823 172.788 5.42823C176.586 5.42823 178.291 7.36235 178.291 9.82396H175.478C175.478 8.31183 174.318 7.88984 172.788 7.88984C171.522 7.88984 170.731 8.17116 170.731 8.80415C170.731 9.3668 171.03 9.5778 173.016 10.2459C175.302 11.0196 178.801 12.0042 178.801 14.5889ZM189.538 5.60406V8.06567H185.494V18H182.68V8.06567H178.619V5.60406H189.538ZM190.771 18V5.60406H195.571C198.525 5.60406 201.092 6.2898 201.092 9.06789C201.092 11.1075 199.439 11.6702 197.945 11.846V12.5493H199.756C200.723 12.5493 201.25 13.0768 201.25 14.0438V18H198.437V13.6394H193.584V18H190.771ZM193.584 11.1778H195.571C197.241 11.1778 198.279 11.1778 198.279 9.63054C198.279 8.06567 197.241 8.06567 195.571 8.06567H193.584V11.1778ZM202.662 13.3933V5.60406H205.475V12.1449C205.475 14.3603 205.669 15.7142 208.253 15.7142C210.838 15.7142 211.049 14.3603 211.049 12.1449V5.60406H213.862V13.3933C213.862 16.4879 211.928 18.1758 208.253 18.1758C204.579 18.1758 202.662 16.4879 202.662 13.3933ZM221.498 15.7142C223.186 15.7142 224.487 14.8351 224.768 13.1999H227.582C227.248 16.0483 225.261 17.8769 222.236 18.1407L221.41 19.055C221.832 18.8616 222.465 18.7033 223.045 18.7033C223.766 18.7033 224.557 18.9143 224.557 19.7935C224.557 21.5166 222.149 21.6924 219.652 21.6924V20.1099C221.533 20.1099 222.447 20.1803 222.447 19.7055C222.447 19.5297 222.289 19.4066 222.043 19.4066C221.727 19.4066 221.375 19.477 220.672 19.7231L219.775 19.0374L220.214 18.0703C217.014 17.5604 215.098 15.0109 215.098 11.7932C215.098 8.18875 217.524 5.42823 221.463 5.42823C224.927 5.42823 227.212 7.32719 227.582 10.3866H224.768C224.487 8.7514 223.186 7.88984 221.498 7.88984C219.335 7.88984 217.911 9.24372 217.911 11.7932C217.911 14.3603 219.335 15.7142 221.498 15.7142ZM232.892 2.70288C232.505 2.70288 232.241 2.87871 232.241 3.93369H230.131C230.131 1.89407 231.098 0.592938 232.716 0.592938C234.334 0.592938 234.826 1.99957 235.599 1.99957C235.986 1.99957 236.25 1.82374 236.25 0.768768H238.36C238.36 2.80838 237.393 4.10952 235.775 4.10952C234.158 4.10952 233.665 2.70288 232.892 2.70288ZM237.868 18L236.742 14.0263H231.714L230.606 18H227.758L231.327 5.60406H237.129L240.716 18H237.868ZM232.399 11.5647H236.057L234.58 6.30738H233.876L232.399 11.5647ZM240.906 11.7932C240.906 8.18875 243.297 5.42823 247.235 5.42823C251.156 5.42823 253.548 8.18875 253.548 11.7932C253.548 15.4153 251.156 18.1758 247.235 18.1758C243.297 18.1758 240.906 15.4153 240.906 11.7932ZM243.719 11.7932C243.719 14.1845 244.897 15.7142 247.235 15.7142C249.574 15.7142 250.734 14.1845 250.734 11.7932C250.734 9.41955 249.574 7.88984 247.235 7.88984C244.897 7.88984 243.719 9.41955 243.719 11.7932ZM256.533 18.1758C255.337 18.1758 254.616 17.3319 254.616 16.2241C254.616 15.1516 255.337 14.3076 256.533 14.3076C257.693 14.3076 258.484 15.1516 258.484 16.2241C258.484 17.3319 257.693 18.1758 256.533 18.1758ZM262.869 18.1758C261.673 18.1758 260.952 17.3319 260.952 16.2241C260.952 15.1516 261.673 14.3076 262.869 14.3076C264.029 14.3076 264.82 15.1516 264.82 16.2241C264.82 17.3319 264.029 18.1758 262.869 18.1758ZM269.205 18.1758C268.009 18.1758 267.288 17.3319 267.288 16.2241C267.288 15.1516 268.009 14.3076 269.205 14.3076C270.365 14.3076 271.156 15.1516 271.156 16.2241C271.156 17.3319 270.365 18.1758 269.205 18.1758Z" fill="white"/>
</svg>
