<svg xmlns="http://www.w3.org/2000/svg" width="34" height="35" viewBox="0 0 34 35" fill="none">
  <path d="M17 9.68175C15.5057 9.68175 14.0449 10.1249 12.8024 10.9551C11.5599 11.7853 10.5914 12.9653 10.0196 14.3459C9.44771 15.7265 9.29809 17.2457 9.58962 18.7113C9.88116 20.177 10.6008 21.5232 11.6574 22.5799C12.7141 23.6366 14.0603 24.3561 15.526 24.6477C16.9916 24.9392 18.5108 24.7896 19.8914 24.2177C21.272 23.6459 22.452 22.6775 23.2822 21.4349C24.1124 20.1924 24.5556 18.7317 24.5556 17.2373C24.5535 15.2341 23.7568 13.3135 22.3403 11.897C20.9238 10.4805 19.0032 9.68383 17 9.68175ZM17 21.0151C16.2528 21.0151 15.5224 20.7935 14.9012 20.3784C14.2799 19.9633 13.7957 19.3733 13.5098 18.683C13.2239 17.9927 13.149 17.2331 13.2948 16.5003C13.4406 15.7675 13.8004 15.0943 14.3287 14.566C14.857 14.0377 15.5302 13.6779 16.263 13.5321C16.9958 13.3863 17.7554 13.4612 18.4457 13.7471C19.136 14.033 19.726 14.5172 20.1411 15.1385C20.5562 15.7597 20.7778 16.4901 20.7778 17.2373C20.7778 18.2392 20.3798 19.2001 19.6713 19.9086C18.9628 20.6171 18.0019 21.0151 17 21.0151ZM24.5556 0.237305H9.44444C6.94052 0.240221 4.53998 1.23619 2.76943 3.00674C0.998889 4.77728 0.00291615 7.17782 0 9.68175V24.7929C0.00291615 27.2968 0.998889 29.6973 2.76943 31.4679C4.53998 33.2384 6.94052 34.2344 9.44444 34.2373H24.5556C27.0595 34.2344 29.46 33.2384 31.2306 31.4679C33.0011 29.6973 33.9971 27.2968 34 24.7929V9.68175C33.9971 7.17782 33.0011 4.77728 31.2306 3.00674C29.46 1.23619 27.0595 0.240221 24.5556 0.237305ZM30.2222 24.7929C30.2222 26.2958 29.6252 27.7371 28.5625 28.7998C27.4998 29.8625 26.0584 30.4595 24.5556 30.4595H9.44444C7.94155 30.4595 6.50021 29.8625 5.43751 28.7998C4.3748 27.7371 3.77778 26.2958 3.77778 24.7929V9.68175C3.77778 8.17886 4.3748 6.73752 5.43751 5.67481C6.50021 4.6121 7.94155 4.01508 9.44444 4.01508H24.5556C26.0584 4.01508 27.4998 4.6121 28.5625 5.67481C29.6252 6.73752 30.2222 8.17886 30.2222 9.68175V24.7929ZM27.7037 9.05212C27.7037 9.55023 27.556 10.0372 27.2793 10.4513C27.0025 10.8655 26.6092 11.1883 26.149 11.3789C25.6888 11.5695 25.1824 11.6194 24.6938 11.5222C24.2053 11.4251 23.7565 11.1852 23.4043 10.833C23.0521 10.4808 22.8122 10.032 22.7151 9.54346C22.6179 9.05491 22.6678 8.54852 22.8584 8.08832C23.049 7.62813 23.3718 7.23479 23.786 6.95805C24.2001 6.68131 24.6871 6.5336 25.1852 6.5336C25.8531 6.5336 26.4937 6.79894 26.966 7.27126C27.4384 7.74357 27.7037 8.38417 27.7037 9.05212Z" fill="white"/>
</svg>