<svg xmlns="http://www.w3.org/2000/svg" width="34" height="35" viewBox="0 0 34 35" fill="none">
  <path d="M31.3458 0.472168H2.65512C1.96337 0.472168 1.29995 0.746964 0.810811 1.2361C0.321671 1.72524 0.046875 2.38866 0.046875 3.08041V31.7711C0.046875 32.4628 0.321671 33.1262 0.810811 33.6154C1.29995 34.1045 1.96337 34.3793 2.65512 34.3793H31.3458C32.0375 34.3793 32.7009 34.1045 33.1901 33.6154C33.6792 33.1262 33.954 32.4628 33.954 31.7711V3.08041C33.954 2.38866 33.6792 1.72524 33.1901 1.2361C32.7009 0.746964 32.0375 0.472168 31.3458 0.472168ZM31.3458 31.7711H2.65512V3.08041H31.3458V31.7711ZM11.784 14.8175V25.2505C11.784 25.5963 11.6466 25.9281 11.402 26.1726C11.1574 26.4172 10.8257 26.5546 10.4798 26.5546C10.134 26.5546 9.80226 26.4172 9.55769 26.1726C9.31312 25.9281 9.17572 25.5963 9.17572 25.2505V14.8175C9.17572 14.4716 9.31312 14.1399 9.55769 13.8953C9.80226 13.6508 10.134 13.5134 10.4798 13.5134C10.8257 13.5134 11.1574 13.6508 11.402 13.8953C11.6466 14.1399 11.784 14.4716 11.784 14.8175ZM26.1293 19.3819V25.2505C26.1293 25.5963 25.9919 25.9281 25.7473 26.1726C25.5028 26.4172 25.171 26.5546 24.8252 26.5546C24.4793 26.5546 24.1476 26.4172 23.903 26.1726C23.6585 25.9281 23.5211 25.5963 23.5211 25.2505V19.3819C23.5211 18.5172 23.1776 17.688 22.5661 17.0765C21.9547 16.4651 21.1254 16.1216 20.2607 16.1216C19.3961 16.1216 18.5668 16.4651 17.9554 17.0765C17.3439 17.688 17.0004 18.5172 17.0004 19.3819V25.2505C17.0004 25.5963 16.8631 25.9281 16.6185 26.1726C16.3739 26.4172 16.0422 26.5546 15.6963 26.5546C15.3505 26.5546 15.0187 26.4172 14.7742 26.1726C14.5296 25.9281 14.3922 25.5963 14.3922 25.2505V14.8175C14.3938 14.4981 14.5126 14.1903 14.7261 13.9527C14.9395 13.715 15.2328 13.564 15.5502 13.5282C15.8677 13.4924 16.1872 13.5744 16.4482 13.7585C16.7092 13.9427 16.8935 14.2163 16.9662 14.5273C17.8484 13.9289 18.877 13.582 19.9415 13.524C21.006 13.466 22.0661 13.6991 23.0081 14.1981C23.9502 14.6972 24.7384 15.4435 25.2883 16.3568C25.8382 17.27 26.1289 18.3159 26.1293 19.3819ZM12.436 10.2531C12.436 10.64 12.3213 11.0182 12.1063 11.3399C11.8914 11.6616 11.5859 11.9123 11.2284 12.0604C10.871 12.2084 10.4777 12.2471 10.0982 12.1717C9.71875 12.0962 9.37019 11.9099 9.09661 11.6363C8.82304 11.3627 8.63673 11.0142 8.56125 10.6347C8.48577 10.2552 8.52451 9.86192 8.67257 9.50448C8.82063 9.14703 9.07135 8.84152 9.39305 8.62657C9.71474 8.41162 10.0929 8.29689 10.4798 8.29689C10.9987 8.29689 11.4962 8.50299 11.8631 8.86985C12.2299 9.2367 12.436 9.73426 12.436 10.2531Z" fill="white"/>
</svg>