<svg width="34" height="35" viewBox="0 0 34 35" fill="none" xmlns="http://www.w3.org/2000/svg">
<path d="M26.7451 20.1177L21.5138 17.5021C21.3079 17.3995 21.0786 17.353 20.849 17.3673C20.6193 17.3817 20.3976 17.4564 20.206 17.5838L17.8046 19.1859C16.7022 18.5798 15.795 17.6727 15.189 16.5703L16.791 14.1688C16.9185 13.9773 16.9931 13.7555 17.0075 13.5259C17.0218 13.2963 16.9754 13.0669 16.8728 12.861L14.2572 7.62978C14.1487 7.41083 13.9812 7.22664 13.7734 7.09806C13.5657 6.96949 13.3261 6.90167 13.0818 6.90231C11.3475 6.90231 9.68428 7.59124 8.45797 8.81755C7.23167 10.0439 6.54274 11.7071 6.54274 13.4413C6.54706 17.2554 8.0641 20.912 10.761 23.6089C13.458 26.3058 17.1146 27.8229 20.9286 27.8272C21.7873 27.8272 22.6376 27.6581 23.431 27.3294C24.2243 27.0008 24.9452 26.5192 25.5524 25.912C26.1596 25.3048 26.6412 24.5839 26.9699 23.7905C27.2985 22.9972 27.4676 22.1469 27.4676 21.2882C27.4678 21.0452 27.4003 20.807 27.2727 20.6003C27.145 20.3935 26.9623 20.2264 26.7451 20.1177ZM20.9286 25.2116C17.808 25.2081 14.8162 23.9669 12.6096 21.7603C10.403 19.5537 9.16181 16.5619 9.15835 13.4413C9.15809 12.5342 9.47216 11.6551 10.0471 10.9535C10.622 10.2519 11.4223 9.77114 12.3118 9.59312L14.1885 13.3531L12.5913 15.73C12.472 15.909 12.3987 16.1147 12.3778 16.3289C12.357 16.543 12.3894 16.759 12.472 16.9577C13.4077 19.1816 15.1769 20.9508 17.4008 21.8865C17.6001 21.9728 17.8177 22.0081 18.034 21.9893C18.2503 21.9705 18.4586 21.898 18.6399 21.7786L21.0283 20.1863L24.7883 22.063C24.6089 22.9535 24.126 23.7542 23.4221 24.3284C22.7183 24.9026 21.837 25.2147 20.9286 25.2116ZM17.0052 0.363282C14.0699 0.362641 11.1845 1.12195 8.62975 2.56731C6.07501 4.01266 3.93799 6.09482 2.4267 8.61112C0.915409 11.1274 0.0813317 13.9921 0.0056529 16.9264C-0.0700259 19.8607 0.615272 22.7646 1.99484 25.3554L0.139396 30.9218C-0.0142965 31.3826 -0.0366009 31.8772 0.0749827 32.35C0.186566 32.8229 0.427628 33.2553 0.771149 33.5988C1.11467 33.9423 1.54708 34.1834 2.0199 34.295C2.49272 34.4065 2.98728 34.3842 3.44814 34.2305L9.01449 32.3751C11.2946 33.5878 13.821 34.2652 16.402 34.3558C18.983 34.4463 21.5507 33.9477 23.9102 32.8978C26.2697 31.8478 28.359 30.2741 30.0195 28.2962C31.68 26.3182 32.8681 23.9879 33.4935 21.4823C34.119 18.9766 34.1654 16.3613 33.6292 13.835C33.0931 11.3087 31.9884 8.9378 30.3991 6.90217C28.8098 4.86654 26.7777 3.21972 24.4569 2.08673C22.1361 0.953737 19.5877 0.364341 17.0052 0.363282ZM17.0052 31.7506C14.4762 31.7523 11.9915 31.0863 9.80244 29.82C9.64216 29.727 9.46396 29.6692 9.27965 29.6503C9.09533 29.6314 8.90911 29.6519 8.73331 29.7104L2.61932 31.7506L4.65786 25.6366C4.71663 25.4609 4.73739 25.2748 4.71879 25.0905C4.70019 24.9061 4.64265 24.7279 4.54997 24.5675C2.96421 21.8259 2.32753 18.6375 2.73871 15.4971C3.14988 12.3567 4.58592 9.43981 6.82406 7.19884C9.06219 4.95788 11.9773 3.51815 15.1172 3.10301C18.2571 2.68787 21.4462 3.32051 24.1898 4.90281C26.9334 6.48511 29.0782 8.9286 30.2914 11.8542C31.5046 14.7799 31.7184 18.0241 30.8997 21.0836C30.0809 24.1432 28.2754 26.847 25.7631 28.7757C23.2509 30.7044 20.1724 31.7501 17.0052 31.7506Z" fill="white"/>
</svg>
